<svg width="78" height="73" viewBox="0 0 78 73" fill="none" xmlns="http://www.w3.org/2000/svg">
<path fill-rule="evenodd" clip-rule="evenodd" d="M58.9205 26.1718C52.5889 12.2816 36.9074 6.42378 23.809 13.0903C10.7106 19.7568 5.13613 36.433 11.3024 50.4073L18.9825 46.4985C14.6859 36.9192 18.4929 25.4433 27.4855 20.8664C36.4781 16.2896 47.2512 20.3449 51.5477 29.9242L58.9205 26.1718Z" fill="#51BC6E"/>
<path fill-rule="evenodd" clip-rule="evenodd" d="M19.0749 47.5363C25.4908 61.3825 41.2076 67.132 54.2652 60.3752C67.3227 53.6185 72.7957 36.9042 66.5446 22.9727L58.8885 26.9344C63.2432 36.4839 59.5061 47.9858 50.5415 52.6246C41.5769 57.2635 30.7794 53.2826 26.4247 43.7331L19.0749 47.5363Z" fill="#0F57C4"/>
</svg>
