<svg width="231" height="195" viewBox="0 0 231 195" fill="none" xmlns="http://www.w3.org/2000/svg">
<path fill-rule="evenodd" clip-rule="evenodd" d="M174.026 69.8202C155.431 31.5234 109.374 15.3727 70.9042 33.753C32.4344 52.1334 16.0621 98.1116 34.1725 136.64L56.7286 125.863C44.1096 99.452 55.2906 67.8117 81.7019 55.1927C108.113 42.5738 139.754 53.7547 152.373 80.166L174.026 69.8202Z" fill="#31B554"/>
<path fill-rule="evenodd" clip-rule="evenodd" d="M57 125.725C75.8434 163.9 122.004 179.752 160.354 161.123C198.704 142.494 214.778 96.4106 196.418 58L173.932 68.9229C186.722 95.2519 175.746 126.964 149.417 139.754C123.088 152.543 91.3761 141.568 78.5863 115.239L57 125.725Z" fill="#001305"/>
</svg>
