<?xml version="1.0" standalone="no"?>
<!DOCTYPE svg PUBLIC "-//W3C//DTD SVG 20010904//EN"
 "http://www.w3.org/TR/2001/REC-SVG-20010904/DTD/svg10.dtd">
<svg version="1.0" xmlns="http://www.w3.org/2000/svg"
 viewBox="0 0 750 600"
 preserveAspectRatio="xMidYMid meet">

<g transform="translate(0.000000,600.000000) scale(0.100000,-0.100000)"
fill="#000000" stroke="none">
<path d="M5360 4905 c0 -41 3 -56 13 -52 7 2 12 22 12 52 0 30 -5 50 -12 53
-10 3 -13 -12 -13 -53z"/>
<path d="M5522 4847 c-39 -40 -53 -67 -34 -67 13 0 92 84 92 98 0 21 -15 13
-58 -31z"/>
<path d="M5542 4668 c3 -8 27 -14 61 -16 46 -2 57 0 57 13 0 12 -13 15 -61 15
-44 0 -60 -3 -57 -12z"/>
<path d="M4540 4350 c-245 -90 -358 -362 -247 -593 80 -167 228 -254 418 -245
76 4 97 9 162 41 327 162 321 624 -12 780 -58 28 -78 32 -166 34 -81 3 -110 0
-155 -17z m64 -250 l82 -80 79 80 c82 82 104 93 137 63 35 -32 23 -63 -59
-145 l-77 -77 77 -80 c82 -83 91 -107 57 -141 -34 -34 -58 -25 -141 57 l-79
76 -79 -76 c-43 -42 -85 -77 -93 -77 -27 0 -58 31 -58 58 0 21 18 46 75 102
l75 74 -80 82 c-85 86 -94 110 -60 144 34 34 58 25 144 -60z"/>
<path d="M2070 4096 c0 -35 4 -46 16 -46 12 0 14 9 12 42 -4 59 -28 63 -28 4z"/>
<path d="M1925 4080 c-10 -17 61 -88 75 -74 7 7 -3 22 -29 48 -27 26 -41 34
-46 26z"/>
<path d="M1877 3943 c-16 -16 -4 -23 38 -23 45 0 60 12 29 24 -21 8 -59 8 -67
-1z"/>
<path d="M2136 3868 c-14 -19 -16 -75 -16 -408 0 -287 3 -389 12 -398 9 -9
125 -12 460 -12 432 0 448 1 458 19 6 13 10 156 10 398 0 326 -2 382 -16 401
l-15 22 -439 0 -439 0 -15 -22z m389 -248 l61 -60 59 60 c64 65 100 76 137 43
35 -31 23 -69 -41 -137 l-60 -61 60 -62 c63 -65 71 -91 39 -123 -35 -35 -69
-26 -132 37 l-57 57 -60 -57 c-64 -61 -98 -72 -133 -40 -35 31 -23 72 39 135
l57 57 -62 65 c-66 69 -74 94 -42 126 36 36 68 26 135 -40z"/>
<path d="M5227 3104 c-13 -13 -8 -439 5 -452 19 -19 442 -17 457 2 8 9 11 79
9 232 l-3 219 -231 3 c-127 1 -233 -1 -237 -4z m201 -138 l37 -35 36 36 c32
30 40 33 58 24 30 -16 26 -50 -9 -86 l-30 -31 30 -29 c34 -33 39 -70 11 -85
-27 -14 -26 -14 -66 21 l-35 31 -35 -31 c-30 -26 -39 -29 -56 -20 -34 18 -34
38 1 74 l33 34 -32 36 c-35 40 -40 69 -13 84 25 15 29 14 70 -23z"/>
<path d="M3742 2069 c-19 -6 -53 -30 -77 -54 -66 -66 -90 -150 -89 -320 1
-260 71 -365 244 -365 185 0 274 151 256 435 -10 171 -50 255 -141 296 -44 20
-137 24 -193 8z m167 -94 c52 -45 66 -100 66 -270 0 -170 -14 -225 -66 -270
-25 -20 -41 -25 -86 -25 -49 0 -59 4 -88 33 -47 47 -59 100 -60 257 0 157 13
216 60 266 29 31 38 34 88 34 45 0 61 -5 86 -25z"/>
<path d="M3111 1828 c-120 -205 -141 -248 -139 -278 l3 -35 160 -5 160 -5 3
-81 c3 -89 10 -97 66 -87 26 5 26 7 26 89 l0 84 49 0 c40 0 51 4 56 19 11 35
-4 50 -53 53 l-47 3 -3 243 -2 242 -69 0 -69 0 -141 -242z m187 -45 l-3 -198
-117 -3 c-65 -1 -118 0 -118 4 0 13 225 393 233 394 4 0 6 -89 5 -197z"/>
<path d="M4427 2063 c-2 -4 -66 -113 -141 -241 -112 -192 -136 -240 -136 -272
l0 -40 163 -2 162 -3 3 -81 c3 -89 10 -97 66 -87 26 5 26 7 26 89 l0 84 49 0
c38 0 50 4 53 18 9 39 -2 51 -50 54 l-47 3 -5 240 -5 240 -67 3 c-36 2 -68 -1
-71 -5z m51 -280 l-3 -198 -117 -3 c-65 -1 -118 0 -118 4 0 13 225 394 233
394 4 0 6 -89 5 -197z"/>
<path d="M4072 1168 c-7 -7 -12 -20 -12 -30 0 -9 -7 -21 -16 -26 -15 -8 -15
-10 0 -15 12 -5 16 -20 16 -62 0 -30 5 -55 10 -55 6 0 10 26 10 59 0 48 3 60
18 64 16 4 16 5 0 6 -27 2 -24 51 3 51 11 0 17 5 14 10 -8 14 -28 13 -43 -2z"/>
<path d="M4680 1140 c0 -38 -1 -40 -20 -30 -31 17 -57 3 -70 -35 -21 -62 32
-121 76 -85 10 9 14 9 14 1 0 -6 5 -11 10 -11 6 0 10 40 10 100 0 60 -4 100
-10 100 -5 0 -10 -18 -10 -40z m-19 -50 c39 -22 16 -97 -28 -88 -22 4 -30 62
-12 84 14 17 15 17 40 4z"/>
<path d="M2960 1070 c0 -53 4 -90 10 -90 6 0 10 16 10 35 0 28 4 35 19 35 54
0 83 45 56 86 -12 19 -24 24 -55 24 l-40 0 0 -90z m75 35 c0 -25 -4 -30 -27
-33 -26 -3 -28 -1 -28 33 0 34 2 36 28 33 23 -3 27 -8 27 -33z"/>
<path d="M3890 1131 c0 -11 -6 -22 -12 -24 -10 -4 -10 -6 0 -6 7 -1 12 -17 12
-45 0 -60 8 -76 36 -76 29 0 32 16 4 23 -16 4 -20 14 -20 46 0 34 4 43 23 51
18 7 19 9 4 9 -11 1 -21 10 -24 21 -7 25 -23 26 -23 1z"/>
<path d="M3113 1110 c-33 -14 -28 -20 14 -17 53 3 58 -26 6 -39 -33 -8 -38
-13 -38 -39 0 -29 2 -30 48 -31 l47 -2 0 59 c0 47 -4 60 -19 69 -23 12 -28 12
-58 0z m57 -85 c0 -19 -32 -36 -49 -25 -8 4 -11 15 -8 24 8 20 57 22 57 1z"/>
<path d="M3258 1113 c-20 -5 -28 -30 -26 -83 0 -19 -3 -43 -7 -53 -11 -25 12
-47 49 -47 76 0 90 59 18 74 -48 11 -56 26 -12 26 31 0 57 30 44 51 -4 6 0 15
7 20 11 6 9 9 -8 9 -12 0 -27 2 -35 4 -7 2 -21 2 -30 -1z m46 -30 c9 -21 -16
-46 -37 -37 -17 6 -23 35 -10 47 12 13 41 7 47 -10z m14 -111 c5 -17 -39 -32
-60 -21 -10 6 -15 16 -11 25 7 18 64 16 71 -4z"/>
<path d="M3385 1095 c-46 -45 -22 -115 40 -115 19 0 37 5 41 11 5 8 -1 10 -21
7 -19 -4 -33 0 -49 16 l-21 21 50 5 c57 6 69 26 36 59 -27 27 -47 26 -76 -4z
m65 -15 c10 -18 8 -20 -30 -20 -38 0 -40 2 -30 20 6 11 19 20 30 20 11 0 24
-9 30 -20z"/>
<path d="M3621 1111 c-8 -5 -20 -7 -28 -4 -10 4 -13 -10 -13 -61 0 -37 4 -66
10 -66 6 0 10 22 10 50 0 40 4 51 21 60 32 18 49 -4 49 -61 0 -27 5 -49 10
-49 6 0 10 24 10 54 0 71 -28 103 -69 77z"/>
<path d="M3750 1102 c-16 -13 -22 -29 -22 -55 0 -48 16 -67 58 -67 58 0 87 77
44 120 -25 25 -51 25 -80 2z m74 -35 c13 -37 -3 -62 -40 -62 -26 0 -29 4 -32
33 -6 63 52 86 72 29z"/>
<path d="M4150 1102 c-27 -22 -33 -79 -11 -106 20 -24 77 -21 95 6 47 67 -23
150 -84 100z m72 -27 c17 -38 -4 -77 -40 -73 -23 2 -28 8 -30 36 -6 59 47 87
70 37z"/>
<path d="M4481 1111 c-8 -5 -20 -7 -28 -4 -10 4 -13 -10 -13 -61 0 -78 18 -89
22 -15 6 96 68 89 68 -8 0 -24 5 -43 10 -43 16 0 12 93 -6 118 -16 24 -31 27
-53 13z"/>
<path d="M4292 1048 l3 -63 48 -1 47 -1 0 64 c0 76 -18 85 -22 11 -3 -49 -5
-53 -28 -53 -23 0 -25 4 -28 53 -2 28 -8 52 -13 52 -6 0 -9 -26 -7 -62z"/>
</g>
</svg>
