<svg width="21" height="21" viewBox="0 0 21 21" fill="none" xmlns="http://www.w3.org/2000/svg">
<path d="M13.713 13.5675L13.8582 13.7075H14.06H14.8012L20.2932 19.2106L19.2106 20.2932L13.7075 14.8012V14.06V13.8582L13.5675 13.713L13.2433 13.3768L12.9155 13.0369L12.5574 13.3447C11.2757 14.4465 9.6133 15.1089 7.80446 15.1089C3.77014 15.1089 0.5 11.8388 0.5 7.80446C0.5 3.77014 3.77014 0.5 7.80446 0.5C11.8388 0.5 15.1089 3.77014 15.1089 7.80446C15.1089 9.6133 14.4465 11.2757 13.3447 12.5574L13.0369 12.9155L13.3768 13.2433L13.713 13.5675ZM1.90137 7.80446C1.90137 11.0703 4.53861 13.7075 7.80446 13.7075C11.0703 13.7075 13.7075 11.0703 13.7075 7.80446C13.7075 4.53861 11.0703 1.90137 7.80446 1.90137C4.53861 1.90137 1.90137 4.53861 1.90137 7.80446Z" />
</svg>
